<mxfile host="app.diagrams.net" modified="2023-07-19T08:53:23.392Z" agent="Mozilla/5.0 (Windows NT 10.0; Win64; x64) AppleWebKit/537.36 (KHTML, like Gecko) Chrome/116.0.0.0 Safari/537.36 Edg/116.0.0.0" version="21.6.3" etag="5Pw7QKX66zlyVolF9Rw_" type="github">
  <diagram name="第 1 页" id="IWYSLXG0KQeZCiTh8Mo3">
    <mxGraphModel>
      <root>
        <mxCell id="0" />
        <mxCell id="1" parent="0" />
      </root>
    </mxGraphModel>
  </diagram>
</mxfile>
